<svg xmlns="http://www.w3.org/2000/svg" viewBox="0 0 32 32" width="32" height="32">
  <rect width="32" height="32" rx="6" fill="#F5F0EB"/>
  <!-- B path extracted from Beautigel logo, scaled and centred -->
  <g transform="translate(3.721, 29) scale(0.2969, 0.2969)" fill="#161616">
    <path d="M 6.078125 -87.578125 L 43.796875 -87.578125 C 50.765625 -87.578125 56.765625 -85.429688 61.796875 -81.140625 C 66.816406 -76.835938 69.328125 -71.6875 69.328125 -65.6875 C 69.328125 -60.976562 67.742188 -56.738281 64.578125 -52.96875 C 61.421875 -49.195312 57.25 -46.539062 52.0625 -45 C 58.875 -44.757812 64.671875 -42.453125 69.453125 -38.078125 C 74.242188 -33.773438 76.640625 -28.582031 76.640625 -22.5 C 76.640625 -16.257812 74.125 -10.945312 69.09375 -6.5625 C 64.144531 -2.1875 58.144531 0 51.09375 0 L 6.078125 0 L 6.078125 -1.21875 C 10.378906 -1.21875 13.175781 -2.109375 14.46875 -3.890625 C 15.363281 -5.191406 15.8125 -7.546875 15.8125 -10.953125 L 15.8125 -76.640625 C 15.8125 -80.046875 15.363281 -82.394531 14.46875 -83.6875 C 13.175781 -85.46875 10.378906 -86.359375 6.078125 -86.359375 Z M 27.984375 -43.796875 L 27.984375 -1.21875 L 45.125 -1.21875 C 51.53125 -1.21875 56.351562 -2.796875 59.59375 -5.953125 C 62.84375 -9.117188 64.46875 -14.632812 64.46875 -22.5 C 64.46875 -29.394531 62.640625 -34.664062 58.984375 -38.3125 C 55.335938 -41.96875 50.273438 -43.796875 43.796875 -43.796875 Z M 27.984375 -86.359375 L 27.984375 -45 L 43.796875 -45 C 47.523438 -45 50.6875 -47.03125 53.28125 -51.09375 C 55.875 -55.144531 57.171875 -60.007812 57.171875 -65.6875 C 57.171875 -68.519531 56.601562 -71.519531 55.46875 -74.6875 C 54.332031 -77.851562 52.566406 -80.550781 50.171875 -82.78125 C 47.785156 -85.007812 44.644531 -86.203125 40.75 -86.359375 Z" />
  </g>
</svg>
